<?xml version="1.0" encoding="UTF-8"?>
<svg version="1.1" xmlns="http://www.w3.org/2000/svg" width="16" height="16">
<path d="M0 0 C0.25 5.625 0.25 5.625 -2 9 C-2.66 9 -3.32 9 -4 9 C-4 10.65 -4 12.3 -4 14 C-3.34 14 -2.68 14 -2 14 C-2 14.66 -2 15.32 -2 16 C-4.64 16 -7.28 16 -10 16 C-9.67 15.34 -9.34 14.68 -9 14 C-8.34 14 -7.68 14 -7 14 C-7 12.35 -7 10.7 -7 9 C-7.78375 9.04125 -8.5675 9.0825 -9.375 9.125 C-12 9 -12 9 -14 7 C-14.125 4.375 -14.125 4.375 -14 2 C-12.7625 2.226875 -11.525 2.45375 -10.25 2.6875 C-6.76728473 3.15464337 -6.76728473 3.15464337 -3.625 1.5625 C-2 0 -2 0 0 0 Z " fill="#B6DB83" transform="translate(15,0)"/>
<path d="M0 0 C2.64 0 5.28 0 8 0 C7.67 1.98 7.34 3.96 7 6 C7.66 6 8.32 6 9 6 C9 6.66 9 7.32 9 8 C6.36 8 3.72 8 1 8 C1.33 7.34 1.66 6.68 2 6 C2.66 6 3.32 6 4 6 C4 4.35 4 2.7 4 1 C2.68 0.67 1.36 0.34 0 0 Z " fill="#4B4F46" transform="translate(4,8)"/>
<path d="M0 0 C0 1.65 0 3.3 0 5 C-0.33 4.01 -0.66 3.02 -1 2 C-1.886875 2.66 -2.77375 3.32 -3.6875 4 C-7.0532311 6.03213953 -8.23033466 6.31413878 -12 6 C-12.99 6.495 -12.99 6.495 -14 7 C-14 5.35 -14 3.7 -14 2 C-12.7625 2.226875 -11.525 2.45375 -10.25 2.6875 C-6.76728473 3.15464337 -6.76728473 3.15464337 -3.625 1.5625 C-2 0 -2 0 0 0 Z " fill="#6F7962" transform="translate(15,0)"/>
<path d="M0 0 C0.66 0 1.32 0 2 0 C2.6875 1.8125 2.6875 1.8125 3 4 C1.5625 5.75 1.5625 5.75 0 7 C0 6.34 0 5.68 0 5 C-0.99 5 -1.98 5 -3 5 C-1.125 1.125 -1.125 1.125 0 0 Z " fill="#AFCC86" transform="translate(12,2)"/>
</svg>
