<svg xmlns="http://www.w3.org/2000/svg" viewBox="0 14.899999618530273 243.85000610351562 39.900001525878906" data-asc="1.082" width="243.85000610351562" height="39.900001525878906"><defs/><g fill="#000000"><g transform="translate(0, 0)"><path d="M0 18.70Q1.05 18.75 2.75 18.80Q4.45 18.85 6.10 18.85Q8.45 18.85 10.60 18.80Q12.75 18.75 13.65 18.75Q19.70 18.75 22.70 21.50Q25.70 24.25 25.70 28.60Q25.70 30.40 25.10 32.38Q24.50 34.35 23.02 36.03Q21.55 37.70 19 38.75Q16.45 39.80 12.55 39.80L7.75 39.80L7.75 38.80L12.05 38.80Q15.60 38.80 17.48 37.45Q19.35 36.10 20.02 33.90Q20.70 31.70 20.70 29.15Q20.70 24.40 18.82 22.05Q16.95 19.70 12.40 19.70Q10.10 19.70 9.40 20.55Q8.70 21.40 8.70 24L8.70 48.80Q8.70 50.60 9.08 51.50Q9.45 52.40 10.55 52.70Q11.65 53 13.75 53.10L13.75 54.10Q12.45 54 10.45 53.98Q8.45 53.95 6.40 53.95Q4.45 53.95 2.75 53.98Q1.05 54 0 54.10L0 53.10Q1.70 53 2.57 52.70Q3.45 52.40 3.75 51.50Q4.05 50.60 4.05 48.80L4.05 24Q4.05 22.15 3.75 21.27Q3.45 20.40 2.57 20.08Q1.70 19.75 0 19.70L0 18.70ZM36.55 14.90L36.55 49.45Q36.55 51.55 37.42 52.30Q38.30 53.05 40.35 53.05L40.35 54.10Q39.50 54.05 37.77 53.98Q36.05 53.90 34.30 53.90Q32.60 53.90 30.85 53.98Q29.10 54.05 28.25 54.10L28.25 53.05Q30.30 53.05 31.17 52.30Q32.05 51.55 32.05 49.45L32.05 20.90Q32.05 18.65 31.25 17.58Q30.45 16.50 28.25 16.50L28.25 15.45Q29.85 15.60 31.35 15.60Q32.80 15.60 34.13 15.42Q35.45 15.25 36.55 14.90ZM50 54.45Q47.95 54.45 46.45 53.68Q44.95 52.90 44.18 51.50Q43.40 50.10 43.40 48.25Q43.40 46.05 44.43 44.65Q45.45 43.25 47.05 42.40Q48.65 41.55 50.43 40.98Q52.20 40.40 53.80 39.88Q55.40 39.35 56.43 38.65Q57.45 37.95 57.45 36.80L57.45 33.70Q57.45 31.60 56.83 30.50Q56.20 29.40 55.15 29.02Q54.10 28.65 52.80 28.65Q51.55 28.65 50.13 29Q48.70 29.35 47.85 30.45Q48.80 30.65 49.50 31.45Q50.20 32.25 50.20 33.50Q50.20 34.75 49.40 35.48Q48.60 36.20 47.35 36.20Q45.90 36.20 45.23 35.28Q44.55 34.35 44.55 33.20Q44.55 31.90 45.20 31.10Q45.85 30.30 46.85 29.60Q48 28.80 49.83 28.23Q51.65 27.65 53.95 27.65Q56 27.65 57.45 28.13Q58.90 28.60 59.85 29.50Q61.15 30.70 61.55 32.42Q61.95 34.15 61.95 36.55L61.95 50.45Q61.95 51.70 62.33 52.25Q62.70 52.80 63.50 52.80Q64.05 52.80 64.55 52.55Q65.05 52.30 65.75 51.75L66.30 52.60Q65.25 53.40 64.30 53.93Q63.35 54.45 61.75 54.45Q60.30 54.45 59.35 53.95Q58.40 53.45 57.93 52.48Q57.45 51.50 57.45 50Q56.10 52.25 54.23 53.35Q52.35 54.45 50 54.45M51.80 52.45Q53.45 52.45 54.88 51.50Q56.30 50.55 57.45 48.65L57.45 38.85Q56.85 39.70 55.70 40.27Q54.55 40.85 53.20 41.42Q51.85 42 50.63 42.77Q49.40 43.55 48.60 44.80Q47.80 46.05 47.80 48.05Q47.80 50.05 48.88 51.25Q49.95 52.45 51.80 52.45ZM84.60 27.65Q86.50 27.65 87.78 28.15Q89.05 28.65 89.90 29.55Q90.85 30.55 91.25 32.05Q91.65 33.55 91.65 36.10L91.65 49.45Q91.65 51.55 92.53 52.30Q93.40 53.05 95.45 53.05L95.45 54.10Q94.60 54.05 92.85 53.98Q91.10 53.90 89.45 53.90Q87.80 53.90 86.23 53.98Q84.65 54.05 83.85 54.10L83.85 53.05Q85.65 53.05 86.40 52.30Q87.15 51.55 87.15 49.45L87.15 35Q87.15 33.45 86.90 32.15Q86.65 30.85 85.78 30.05Q84.90 29.25 83.10 29.25Q81.00 29.25 79.43 30.45Q77.85 31.65 76.98 33.73Q76.10 35.80 76.10 38.35L76.10 49.45Q76.10 51.55 76.85 52.30Q77.60 53.05 79.40 53.05L79.40 54.10Q78.60 54.05 77.03 53.98Q75.45 53.90 73.80 53.90Q72.15 53.90 70.40 53.98Q68.65 54.05 67.80 54.10L67.80 53.05Q69.85 53.05 70.73 52.30Q71.60 51.55 71.60 49.45L71.60 33.80Q71.60 31.55 70.80 30.48Q70.00 29.40 67.80 29.40L67.80 28.35Q69.40 28.50 70.90 28.50Q72.35 28.50 73.68 28.32Q75.00 28.15 76.10 27.80L76.10 33.70Q77.40 30.30 79.73 28.98Q82.05 27.65 84.60 27.65ZM105.70 20.05L105.70 28.40L113.10 28.40L113.10 29.40L105.70 29.40L105.70 48.75Q105.70 51.10 106.55 52.05Q107.40 53 108.90 53Q110.40 53 111.50 51.77Q112.60 50.55 113.40 47.65L114.40 47.90Q113.90 50.80 112.43 52.80Q110.95 54.80 107.90 54.80Q106.20 54.80 105.10 54.38Q104.00 53.95 103.15 53.15Q102.05 52 101.63 50.40Q101.20 48.80 101.20 46.15L101.20 29.40L96.40 29.40L96.40 28.40L101.20 28.40L101.20 20.75Q102.45 20.70 103.60 20.55Q104.75 20.40 105.70 20.05ZM139.15 18.15Q141.65 18.15 142.95 18.73Q144.25 19.30 145.25 20Q145.85 20.35 146.23 20.52Q146.60 20.70 146.95 20.70Q147.45 20.70 147.68 20.15Q147.90 19.60 148.05 18.50L149.20 18.50Q149.15 19.35 149.08 20.52Q149.00 21.70 148.98 23.63Q148.95 25.55 148.95 28.70L147.80 28.70Q147.65 26.30 146.75 24.10Q145.85 21.90 144.13 20.50Q142.40 19.10 139.60 19.10Q136.95 19.10 135.23 20.70Q133.50 22.30 133.50 24.90Q133.50 27.15 134.65 28.68Q135.80 30.20 137.73 31.43Q139.65 32.65 141.90 34.05Q144.50 35.65 146.53 37.23Q148.55 38.80 149.73 40.70Q150.90 42.60 150.90 45.30Q150.90 48.50 149.45 50.60Q148.00 52.70 145.60 53.75Q143.20 54.80 140.30 54.80Q137.65 54.80 136.10 54.20Q134.55 53.60 133.45 52.95Q132.35 52.25 131.75 52.25Q131.25 52.25 131.03 52.80Q130.80 53.35 130.65 54.45L129.50 54.45Q129.60 53.40 129.63 51.98Q129.65 50.55 129.68 48.25Q129.70 45.95 129.70 42.45L130.85 42.45Q131.05 45.45 131.98 48.05Q132.90 50.65 134.83 52.23Q136.75 53.80 139.95 53.80Q141.60 53.80 143.08 53.13Q144.55 52.45 145.50 50.98Q146.45 49.50 146.45 47.15Q146.45 45.10 145.48 43.58Q144.50 42.05 142.75 40.73Q141.00 39.40 138.65 38Q136.30 36.55 134.25 35.05Q132.20 33.55 130.98 31.57Q129.75 29.60 129.75 26.80Q129.75 23.85 131.08 21.92Q132.40 20 134.55 19.08Q136.70 18.15 139.15 18.15ZM162.85 20.05L162.85 28.40L170.25 28.40L170.25 29.40L162.85 29.40L162.85 48.75Q162.85 51.10 163.70 52.05Q164.55 53 166.05 53Q167.55 53 168.65 51.77Q169.75 50.55 170.55 47.65L171.55 47.90Q171.05 50.80 169.58 52.80Q168.10 54.80 165.05 54.80Q163.35 54.80 162.25 54.38Q161.15 53.95 160.30 53.15Q159.20 52 158.78 50.40Q158.35 48.80 158.35 46.15L158.35 29.40L153.55 29.40L153.55 28.40L158.35 28.40L158.35 20.75Q159.60 20.70 160.75 20.55Q161.90 20.40 162.85 20.05ZM184.75 27.65Q187.95 27.65 190.50 29.05Q193.05 30.45 194.58 33.45Q196.10 36.45 196.10 41.25Q196.10 46.05 194.58 49.02Q193.05 52 190.50 53.40Q187.95 54.80 184.75 54.80Q181.60 54.80 179.03 53.40Q176.45 52 174.93 49.02Q173.40 46.05 173.40 41.25Q173.40 36.45 174.93 33.45Q176.45 30.45 179.03 29.05Q181.60 27.65 184.75 27.65M184.75 28.65Q181.90 28.65 180.08 31.60Q178.25 34.55 178.25 41.25Q178.25 47.95 180.08 50.88Q181.90 53.80 184.75 53.80Q187.60 53.80 189.43 50.88Q191.25 47.95 191.25 41.25Q191.25 34.55 189.43 31.60Q187.60 28.65 184.75 28.65ZM215.45 27.65Q216.80 27.65 217.83 28.20Q218.85 28.75 219.43 29.63Q220.00 30.50 220.00 31.60Q220.00 32.85 219.23 33.80Q218.45 34.75 217.15 34.75Q216.10 34.75 215.30 34.08Q214.50 33.40 214.50 32.15Q214.50 31.20 215.03 30.52Q215.55 29.85 216.20 29.45Q215.85 28.95 215.15 28.95Q213.60 28.95 212.30 29.88Q211.00 30.80 210.10 32.25Q209.20 33.70 208.70 35.33Q208.20 36.95 208.20 38.35L208.20 48.95Q208.20 51.40 209.63 52.23Q211.05 53.05 213.50 53.05L213.50 54.10Q212.35 54.05 210.25 53.98Q208.15 53.90 205.80 53.90Q204.10 53.90 202.43 53.98Q200.75 54.05 199.90 54.10L199.90 53.05Q201.95 53.05 202.83 52.30Q203.70 51.55 203.70 49.45L203.70 33.80Q203.70 31.55 202.90 30.48Q202.10 29.40 199.90 29.40L199.90 28.35Q201.50 28.50 203.00 28.50Q204.45 28.50 205.78 28.32Q207.10 28.15 208.20 27.80L208.20 34.05Q208.75 32.60 209.78 31.13Q210.80 29.65 212.25 28.65Q213.70 27.65 215.45 27.65ZM234.30 27.65Q238.70 27.65 241.18 30.32Q243.65 33 243.65 38.65L226.00 38.65L225.95 37.70L238.85 37.70Q238.95 35.25 238.45 33.17Q237.95 31.10 236.88 29.85Q235.80 28.60 234.10 28.60Q231.80 28.60 230.03 30.90Q228.25 33.20 227.90 38.20L228.05 38.40Q227.95 39.15 227.90 40.05Q227.85 40.95 227.85 41.85Q227.85 45.25 228.95 47.70Q230.05 50.15 231.83 51.43Q233.60 52.70 235.50 52.70Q237.00 52.70 238.35 52.23Q239.70 51.75 240.85 50.65Q242.00 49.55 242.85 47.70L243.85 48.10Q243.30 49.75 242.05 51.30Q240.80 52.85 238.90 53.83Q237.00 54.80 234.50 54.80Q230.90 54.80 228.33 53.15Q225.75 51.50 224.38 48.58Q223.00 45.65 223.00 41.85Q223.00 37.45 224.40 34.27Q225.80 31.10 228.35 29.38Q230.90 27.65 234.30 27.65Z"/></g></g></svg>